<svg xmlns="http://www.w3.org/2000/svg" width="75.119" viewBox="0 0 75.119006 139.35601" height="139.356"><path d="M70.667 118.226H4.447V10.889h66.22zm-38.263 10.899c0-2.951 2.37-5.345 5.294-5.345 2.925 0 5.294 2.394 5.294 5.345 0 2.95-2.369 5.348-5.294 5.348-2.924-.004-5.294-2.398-5.294-5.348m42.706 4.851h.009V5.314h-.002A5.338 5.338 0 0 0 69.778 0l-.057.002V0H5.336A5.341 5.341 0 0 0 .001 5.314H0v128.661h.008c-.002.056-.008.111-.008.169 0 2.878 2.419 5.212 5.404 5.212.044 0 .087-.006.131-.007v.007h64.316c2.904 0 5.267-2.333 5.267-5.212.001-.057-.006-.113-.008-.168" fill="#aaa"/></svg>