<svg xmlns="http://www.w3.org/2000/svg" height="141.732" viewBox="0 0 141.732 141.732" width="141.732"><path d="M119.462 36.57v66.22H12.125V36.57zm10.899 38.263c-2.951 0-5.345-2.37-5.345-5.294 0-2.925 2.394-5.294 5.345-5.294 2.95 0 5.348 2.37 5.348 5.294-.004 2.924-2.398 5.294-5.348 5.294m4.85-42.706v-.009H6.55v.002a5.338 5.338 0 0 0-5.314 5.34l.002.056h-.002v64.385a5.341 5.341 0 0 0 5.314 5.335v.001h128.66v-.007c.057.001.112.007.17.007 2.878 0 5.212-2.418 5.212-5.403 0-.045-.006-.088-.007-.132h.007V37.386c0-2.904-2.333-5.267-5.212-5.267-.057 0-.113.006-.168.008"/></svg>