<svg xmlns="http://www.w3.org/2000/svg" width="139.356" viewBox="0 0 139.35601 75.119006" height="75.119"><path d="M118.226 4.452v66.22H10.889V4.452zm10.899 38.263c-2.951 0-5.345-2.37-5.345-5.294 0-2.925 2.394-5.294 5.345-5.294 2.95 0 5.348 2.369 5.348 5.294-.004 2.924-2.398 5.294-5.348 5.294M133.976.009V0H5.314v.002A5.338 5.338 0 0 0 0 5.341l.002.057H0v64.385a5.341 5.341 0 0 0 5.314 5.335v.001h128.661v-.008c.056.002.111.008.169.008 2.878 0 5.212-2.419 5.212-5.404 0-.044-.006-.087-.007-.131h.007V5.268c0-2.904-2.333-5.267-5.212-5.267-.057-.001-.113.006-.168.008" fill="#aaa"/></svg>