<svg xmlns="http://www.w3.org/2000/svg" width="109.688" viewBox="0 0 109.68801 141.4" height="141.4"><path d="M98.419 128.846H11.264V12.953h87.153zm-47.028 6.611a3.445 3.445 0 0 1 3.448-3.445 3.448 3.448 0 1 1 0 6.898 3.45 3.45 0 0 1-3.448-3.453M109.683 5.441h-.006c0-.047.006-.091.006-.138A5.303 5.303 0 0 0 104.379 0c-.047 0-.093.004-.14.006V0H5.443v.006C5.397.004 5.352 0 5.304 0A5.303 5.303 0 0 0 0 5.304c0 .047.006.091.007.138H0v130.523h.142c-.001.051-.01.095-.01.144a5.291 5.291 0 0 0 5.294 5.291c.046 0 .092-.006.138-.008v.008h98.56v-.008c.047.002.091.008.14.008a5.292 5.292 0 0 0 5.294-5.291c0-.049-.008-.093-.011-.144h.141z" fill="#aaa"/></svg>