<svg xmlns="http://www.w3.org/2000/svg" height="109.688" viewBox="0 0 141.4 109.68801" width="141.4"><path d="M128.846 11.269v87.155H12.953V11.271zm6.611 47.028a3.445 3.445 0 0 1-3.445-3.448 3.448 3.448 0 1 1 6.898 0 3.45 3.45 0 0 1-3.453 3.448M5.441.005v.006c-.047 0-.091-.006-.138-.006A5.303 5.303 0 0 0 0 5.309c0 .047.004.093.006.14H0v98.796h.006c-.002.046-.006.091-.006.139a5.303 5.303 0 0 0 5.304 5.304c.047 0 .091-.006.138-.007v.007h130.523v-.142c.051.001.095.01.144.01a5.291 5.291 0 0 0 5.291-5.294c0-.046-.006-.092-.008-.138h.008V5.564h-.008c.002-.047.008-.091.008-.14A5.292 5.292 0 0 0 136.109.13c-.049 0-.093.008-.144.011V0z" fill="#aaa"/></svg>