<svg xmlns="http://www.w3.org/2000/svg" width="141.732" viewBox="0 0 141.732 141.732" height="141.732"><path d="M129.166 27.125v87.155H13.273V27.127zm6.611 47.028a3.445 3.445 0 0 1-3.445-3.448 3.448 3.448 0 1 1 6.898 0 3.45 3.45 0 0 1-3.453 3.448M5.761 15.861v.006c-.047 0-.091-.006-.138-.006A5.303 5.303 0 0 0 .32 21.165c0 .047.004.093.006.14H.32v98.796h.006c-.002.046-.006.091-.006.139a5.303 5.303 0 0 0 5.304 5.304c.047 0 .091-.006.138-.007v.007h130.523v-.142c.051.001.095.01.144.01a5.291 5.291 0 0 0 5.291-5.294c0-.046-.006-.092-.008-.138h.008V21.42h-.008c.002-.047.008-.091.008-.14a5.292 5.292 0 0 0-5.291-5.294c-.049 0-.093.008-.144.011v-.141z"/></svg>