<svg height="141.732" viewBox="0 0 141.732 141.732" width="141.732" xmlns="http://www.w3.org/2000/svg"><path d="M115.232 128.846H28.077V12.953h87.153l.002 115.893zm-47.028 6.611a3.445 3.445 0 0 1 3.448-3.445 3.448 3.448 0 1 1 0 6.898 3.45 3.45 0 0 1-3.448-3.453M126.496 5.441h-.006c0-.047.006-.091.006-.138A5.303 5.303 0 0 0 121.192 0c-.047 0-.093.004-.14.006V0H22.256v.006C22.21.004 22.165 0 22.117 0a5.303 5.303 0 0 0-5.304 5.304c0 .047.006.091.007.138h-.007v130.523h.142c-.001.051-.01.095-.01.144a5.291 5.291 0 0 0 5.294 5.291c.046 0 .092-.006.138-.008v.008h98.56v-.008c.047.002.091.008.14.008a5.292 5.292 0 0 0 5.294-5.291c0-.049-.008-.093-.011-.144h.141l-.005-130.524z"/></svg>