<svg xmlns="http://www.w3.org/2000/svg" viewBox="0 0 362.73398 411.37997" height="438.805" width="386.916"><path fill="#264de4" d="M181.145 411.38L33.011 370.257 0 0h362.734l-33.046 370.199z"/><path fill="#2965f1" d="M181.367 30.274v349.629l120.03-33.277 28.24-316.352z"/><path d="M181.367 213.007v-45.41H75.677l4.07 45.41zM67.499 75.685l4.128 45.411h109.74V75.685h-.157zm113.669 209.901l-50.574-13.656-3.233-36.217H81.776l6.362 71.301 93.02 25.823.209-.058v-47.246z"/><path fill="#3d3d3d" d="M181.21 285.571v47.244l93.094-25.801.683-7.672 10.671-119.551 1.108-12.194 8.198-91.912H181.21v45.411h63.988l-4.132 46.501H181.21v45.41h55.918l-5.271 58.894z"/></svg>