<svg xmlns="http://www.w3.org/2000/svg" width="297.45" height="337.341" viewBox="0 0 297.45001 337.341"><g fill="none"><path d="M27.071 303.62L0 0h297.45l-27.096 303.571-121.811 33.77L27.071 303.62zm0 0" fill="#d4b830"/><path d="M148.727 311.529l98.427-27.288 23.157-259.415H148.727v286.703zm0 0" fill="#fdd83c"/><path d="M250.48 134.826h-52.479V96.694h55.797l3.303-37.239h-98.033v112.607h50.768l-4.484 48.294-46.284 8.426v38.819l81.091-18.451z" fill="#4d4d4d"/><path d="M138.725 59.455H55.574l3.453 37.254h42.319v126.707l-20.741-3.035-2.652-29.698H40.574l5.216 58.467c92.935 18.45.352-.014 92.935 18.45z" fill="#000"/></g></svg>