<svg
   xmlns="http://www.w3.org/2000/svg"
   viewBox="0 0 134.54 197.34598">
   <g   transform="matrix(1.3333333,0,0,-1.3333333,-171.46673,1135.651)" fill="#381a96"><path
       d="m 172.34505,812.04081 c 10.882,-1.852 21.206,5.468 23.059,16.351 1.852,10.883 -5.468,21.207 -16.351,23.06 -10.883,1.852 -21.207,-5.469 -23.06,-16.352 -1.852,-10.882 5.469,-21.206 16.352,-23.059" /><path
       d="m 190.58305,752.38381 c 0,8.23 -7.115,14.902 -15.891,14.902 h -19.255 l -3.985,18.014 c -2.4,9.777 -6.678,13.495 -14.913,13.984 h -0.807 c -3.939,0 -7.132,-2.994 -7.132,-6.688 v -25.31 -18.781 -39.567 c 0,-2.877 2.487,-5.209 5.555,-5.209 h 50.873 c 3.068,0 5.555,2.332 5.555,5.209 v 43.446" /><path
       d="m 204.46105,760.21481 c -0.475,1.466 -1.406,2.69 -2.604,3.538 h 10.365 l 17.283,27.271 -3.966,2.513 -15.9,-25.089 h -5.974 c -1.619,-2.076 -4.142,-3.415 -6.974,-3.415 h -10.336 c 1.605,-1.322 2.957,-2.91 3.977,-4.692 7.089,-0.186 12.799,-6.006 12.799,-13.139 v -27.003 c 1.304,-1.819 3.421,-2.907 5.659,-2.907 0.712,0 1.435,0.11 2.149,0.341 3.659,1.186 5.664,5.114 4.478,8.773 l -10.956,33.809" /><path
       d="m 191.28105,758.39481 c 0.761,-1.867 1.18,-3.894 1.18,-6.011 v -43.446 c 0,-1.997 -0.872,-3.803 -2.271,-5.092 h 4.411 c 3.673,0 6.652,2.978 6.652,6.652 v 36.704 c 0,5.785 -4.36,10.549 -9.972,11.193" /><path
       d="m 170.19505,769.16381 c -0.334,0.528 -0.615,1.095 -0.834,1.697 l -8.686,23.946 c -0.806,2.221 -0.698,4.622 0.302,6.762 1.001,2.14 2.775,3.762 4.996,4.568 0.973,0.352 1.987,0.531 3.015,0.531 3.708,0 7.049,-2.342 8.314,-5.829 l 4.983,-13.739 c -0.022,4.236 -0.042,7.182 -0.042,7.182 -0.084,8.672 -3.269,15.654 -11.941,15.57 v 0 c -8.672,-0.084 -11.156,-5.94 -12.976,-15.427 0,0 -0.912,-7.297 -2.183,-17.115 l 1.802,-8.146 h 13.25" /><path
       d="m 175.53605,800.19781 c -1.312,3.616 -5.307,5.485 -8.923,4.173 -3.616,-1.312 -5.484,-5.307 -4.173,-8.923 l 8.687,-23.947 c 0.321,-0.884 0.809,-1.672 1.419,-2.337 h 2.146 c 3.234,0 6.27,-0.821 8.885,-2.253 h 13.114 c 3.847,0 6.965,3.118 6.965,6.965 0,3.847 -3.118,6.966 -6.965,6.966 h -14.134 l -7.021,19.356" /></g></svg>