<svg xmlns="http://www.w3.org/2000/svg" version="1.1" viewBox="0 0 170.61276 170.29598" xml:space="preserve">
    <g transform="matrix(1.3333333,0,0,-1.3333333,-0.00208333,1076.7373)">
        <g id="g12" transform="scale(0.1)" fill="#381a96">
            <path id="path14" d="m 628.699,7462.75 c 0.047,-0.24 0.254,-0.41 0.496,-0.41 0.028,0 145.692,26.18 145.692,26.18 2.09,0.37 4.113,0.89 6.019,1.47 5.289,0.76 9.578,1.89 13.492,3.54 l 55.442,23.81 -0.988,41.53 -0.243,20.73 -0.246,-0.15 -0.011,0.58 -90.332,-54.08 c -4.723,-2.83 -9.782,-5.02 -15.977,-6.92 -2.098,-0.92 -4.25,-1.77 -6.48,-2.49 l -87.844,-29.33 -25.293,-8.3 c 0.031,-0.04 0.047,-0.09 0.074,-0.12 l -0.484,-0.17 c 3.379,-4.76 5.625,-10.1 6.683,-15.87"/>
            <path id="path16" d="m 918.238,7779.08 c 81.739,0 148.232,66.49 148.232,148.22 0,81.74 -66.493,148.23 -148.232,148.23 -81.722,0 -148.215,-66.49 -148.215,-148.23 0,-81.73 66.493,-148.22 148.215,-148.22"/>
            <path id="path18" d="m 1127.46,7143.39 c 9.77,0 19.09,3.36 26.9,9.69 8.5,5.17 14.75,12.68 18.11,21.77 l 104.45,458 c 3.99,10.8 3.53,22.51 -1.29,32.97 -4.81,10.46 -13.41,18.41 -24.21,22.4 -4.82,1.78 -9.85,2.69 -14.95,2.69 -17.95,0 -34.2,-11.33 -40.44,-28.25 l -46.77,-207.33 -45.4,-199.07 5.09,435.35 c 0,41.81 -14.64,66.77 -39.16,66.77 H 905.973 c -8.336,0 -15.578,-2.83 -21.438,-8.36 l -187.472,-112.25 0.257,-0.43 -1.406,0.13 -213.82,-70.11 c -28.356,-9.31 -43.856,-39.95 -34.567,-68.31 2.371,-7.24 6.352,-13.83 11.668,-18.99 1.043,-1.15 2.11,-2.28 3.243,-3.33 l -174.833,-0.32 -107.648,285.06 c -3.125,8.21 -11.117,13.72 -19.891,13.72 -2.582,0 -5.121,-0.47 -7.55,-1.4 -10.95,-4.15 -16.477,-16.45 -12.325,-27.41 l 111.016,-293.9 c 1.215,-8.55 7.266,-15.17 15.242,-16.86 0.465,-0.14 0.918,-0.31 1.399,-0.41 H 42.1523 c -23.2382,0 -42.136675,-14.61 -42.136675,-32.57 0,-17.96 18.898475,-32.57 42.136675,-32.57 l 58.0587,0.5 0.496,-572.26 H 421.09 c 0.277,0 0.496,0.22 0.496,0.5 l -0.496,571.26 h 239.746 c 23.234,0 42.137,14.61 42.137,32.57 0,17.96 -18.903,32.57 -42.137,32.57 l -35.703,-0.5 h -31.5 c 9.586,2.06 16.801,10.58 16.801,20.77 0,11.72 -9.536,21.25 -21.258,21.25 l -19.965,-0.49 h -17.539 l 177.973,58.35 c 2.019,0.66 3.941,1.45 5.75,2.29 5.128,1.48 9.218,3.19 12.875,5.37 l 79.539,48.2 39.902,23.89 4.141,-312.57 -178.258,-11.74 c -11.953,-0.79 -23.344,-5.03 -32.906,-12.24 -16.336,-10.25 -26.766,-27.09 -28.614,-46.2 L 619.906,6930 c -3.261,-33.78 21.571,-63.92 55.352,-67.2 2.008,-0.19 4,-0.29 5.976,-0.29 31.825,0 58.125,23.93 61.192,55.68 l 9.738,252.34 48.457,3.58 c 5.547,-18.37 22.059,-30.72 41.094,-30.72 l 112.676,0.48 9.398,-176.35 C 876,6962.56 793.074,6926.25 730.281,6865.28 c -6.429,-6.23 -10.125,-14.6 -9.875,-22.37 0.168,-5.5 2.309,-10.26 6.012,-13.42 3.582,-3.07 8.199,-4.69 13.352,-4.69 7.398,0 15.039,3.28 20.96,9.01 54.704,53.11 126.793,84.93 202.676,90.27 0.696,0.05 1.383,0.13 2.074,0.16 l 3.43,-67.9 c 0,-17.39 7.031,-31.54 15.676,-31.54 8.637,0 15.664,14.15 15.664,31.52 l 2.88,66.91 0.03,0.56 c 77.17,-4.43 150.07,-36.38 205.28,-89.98 5.92,-5.73 13.56,-9.01 20.95,-9.01 5.16,0 9.77,1.62 13.35,4.69 3.71,3.17 5.85,7.94 6.01,13.44 0.25,7.76 -3.44,16.12 -9.87,22.33 -62.8,60.98 -145.73,97.3 -233.04,101.73 l 8.43,176.4 h 113.19"/>
        </g>
    </g>
</svg>
