<svg xmlns="http://www.w3.org/2000/svg"  version="1.1" viewBox="0 0 170.61263 229.01198">
    <g transform="matrix(1.3333333,0,0,-1.3333333,-512.61065,1135.452)" fill="#533ca2">
        <path d="m 450.54,737.007 c 2.323,0 4.214,1.461 4.214,3.257 0,1.796 -1.891,3.257 -4.214,3.257 l -3.571,-0.05 h -3.15 c 0.959,0.206 1.681,1.058 1.681,2.077 0,1.172 -0.954,2.125 -2.126,2.125 l -5.387,-0.003 c -2.727,-1.215 -5.525,-2.216 -8.316,-2.975 -0.81,-0.222 -1.635,-0.334 -2.454,-0.334 -2.751,0 -5.184,1.23 -6.549,3.312 l -7.451,-0.032 -10.765,28.506 c -0.312,0.821 -1.112,1.372 -1.989,1.372 -0.258,0 -0.512,-0.047 -0.755,-0.14 -1.095,-0.415 -1.647,-1.645 -1.232,-2.741 l 11.101,-29.39 c 0.121,-0.855 0.727,-1.517 1.525,-1.686 0.046,-0.014 0.091,-0.031 0.139,-0.041 h -22.569 c -2.324,0 -4.214,-1.461 -4.214,-3.257 0,-1.796 1.89,-3.257 4.214,-3.257 l 5.806,0.05 0.049,-57.226 h 32.038 c 0.028,0 0.05,0.022 0.05,0.05 l -0.05,57.126 h 23.975"/>
        <path d="m 431.695,757.058 c 8.174,0 14.823,6.649 14.823,14.821 0,8.174 -6.649,14.823 -14.823,14.823 -8.173,0 -14.821,-6.649 -14.821,-14.823 0,-8.172 6.648,-14.821 14.821,-14.821" />
        <path d="m 497.202,717.179 c 0.977,0 1.908,0.336 2.69,0.969 0.85,0.517 1.475,1.268 1.81,2.177 l 10.445,45.8 c 0.4,1.08 0.355,2.251 -0.126,3.297 -0.483,1.046 -1.342,1.841 -2.422,2.24 -0.483,0.178 -0.986,0.268 -1.495,0.268 -1.796,0 -3.42,-1.132 -4.044,-2.825 l -9.837,-43.304 -8.498,10e-4 c 0.017,0.063 0.036,0.126 0.033,0.163 l 6.47,5.153 c 1.876,1.495 1.539,5.055 -0.754,7.935 l -27.254,35.051 c -1.787,2.243 -3.665,3.478 -5.289,3.478 -0.705,0 -1.357,-0.234 -1.936,-0.695 l -8.699,-6.948 c -0.979,-8.427 -8.116,-14.782 -16.601,-14.782 -2.267,0 -4.47,0.451 -6.591,1.337 -2.359,-1.19 -3.748,-3.604 -3.456,-6.006 0.29,-2.409 2.684,-4.227 5.569,-4.227 0.649,0 1.306,0.09 1.955,0.267 6.822,1.856 13.161,4.956 18.772,9.22 l 11.93,-14.542 6.94,-8.507 -12.998,-0.857 c -1.195,-0.078 -2.334,-0.502 -3.288,-1.221 -1.636,-1.025 -2.68,-2.709 -2.864,-4.622 l -1.217,-30.16 c -0.326,-3.377 2.157,-6.392 5.535,-6.719 0.201,-0.019 0.401,-0.029 0.598,-0.029 3.182,0 5.813,2.393 6.119,5.568 l 0.973,25.234 4.847,0.358 c 0.555,-1.837 2.207,-3.072 4.109,-3.072 l 11.246,0.048 1.044,-23.119 c -8.809,-0.477 -17.132,-4.11 -23.435,-10.229 -0.642,-0.623 -1.011,-1.46 -0.987,-2.238 0.018,-0.549 0.231,-1.026 0.602,-1.342 0.358,-0.306 0.82,-0.469 1.335,-0.469 0.74,0 1.504,0.329 2.097,0.902 5.47,5.31 12.674,8.49 20.261,9.026 0.089,0.006 0.177,0.016 0.265,0.02 l 0.292,-6.793 c 0,-1.739 0.703,-3.154 1.567,-3.154 0.863,0 1.565,1.415 1.565,3.152 l 0.236,6.645 0.005,0.105 c 7.737,-0.432 15.045,-3.628 20.579,-9.002 0.593,-0.572 1.356,-0.9 2.096,-0.9 0.515,0 0.977,0.162 1.334,0.468 0.372,0.317 0.585,0.794 0.602,1.344 0.024,0.777 -0.345,1.613 -0.987,2.234 -6.303,6.12 -14.625,9.753 -23.388,10.179 l 0.947,23.123 h 11.298" />
        <path d="m 440.373,798.684 0.049,-3.499 h 15.386 c 0.027,0 0.049,0.022 0.049,0.05 l -0.049,3.24 -6.557,-0.05 h -4.152 l 10.356,12.775 -0.05,3.021 -13.908,-0.05 0.049,-3.253 5.397,0.05 h 3.361 l -9.931,-12.284" />
        <path d="m 462.927,823.445 4.844,0.026 c 0.571,0.007 1.042,0.023 1.408,0.09 0.059,0.003 0.131,0.005 0.185,0.008 -0.409,-0.412 -1.025,-1.087 -1.839,-2.017 l -5.152,-5.937 0.05,-2.878 h 12.246 c 0.027,0 0.05,0.022 0.05,0.05 l -0.05,3.24 h -5.619 c -0.198,0 -0.666,-0.024 -1.358,-0.111 -0.139,-0.007 -0.283,-0.016 -0.443,-0.025 l 1.814,1.965 5.255,6.078 -0.049,2.62 -11.392,-0.049 0.05,-3.06" />
        <path d="m 464.998,846.586 -5.152,-5.936 0.05,-2.879 h 12.244 c 0.027,0 0.049,0.023 0.049,0.05 l -0.049,3.241 h -5.619 c -0.198,0 -0.667,-0.024 -1.358,-0.111 -0.14,-0.008 -0.283,-0.016 -0.443,-0.026 l 1.813,1.966 5.256,6.078 -0.05,2.62 -11.389,-0.05 0.049,-3.059 4.845,0.026 c 0.569,0.007 1.04,0.023 1.406,0.09 0.06,0.002 0.131,0.005 0.186,0.008 -0.4,-0.403 -1,-1.06 -1.838,-2.018" />
    </g>
</svg>
